<svg xmlns="http://www.w3.org/2000/svg" viewBox="0 0 24 24" width="24" height="24">
    <path fill="#EA4335" d="M12 5.04c1.66 0 3.2.57 4.38 1.69l3.27-3.27C17.67 1.54 14.98 1 12 1 7.35 1 3.37 3.65 1.45 7.5l3.86 3C6.23 7.55 8.89 5.04 12 5.04z"/>
    <path fill="#4285F4" d="M23.49 12.27c0-.81-.07-1.59-.2-2.34H12v4.44h6.44c-.28 1.44-1.09 2.66-2.31 3.48l3.6 2.79c2.1-1.94 3.76-4.8 3.76-8.37z"/>
    <path fill="#FBBC05" d="M5.31 10.5C5.06 11.28 4.91 12.1 4.91 13s.15 1.72.4 2.5l-3.86 3C.53 16.92 0 15.02 0 13s.53-3.92 1.45-5.5l3.86 3z"/>
    <path fill="#34A853" d="M12 23c3.24 0 5.97-1.07 7.96-2.91l-3.6-2.79c-1.01.68-2.31 1.08-4.36 1.08-3.11 0-5.77-2.51-6.69-5.46l-3.86 3C3.37 20.35 7.35 23 12 23z"/>
</svg>
